<svg width="496" height="512" xmlns="http://www.w3.org/2000/svg" class="svg-inline--fa fa-telegram fa-w-16">

 <g>
  <title>background</title>
  <rect fill="none" id="canvas_background" height="402" width="582" y="-1" x="-1"/>
 </g>
 <g>
  <title>Layer 1</title>
  <path id="svg_1" d="m248,8c-137,0 -248,111 -248,248s111,248 248,248s248,-111 248,-248s-111,-248 -248,-248zm121.8,169.9l-40.7,191.8c-3,13.6 -11.1,16.9 -22.4,10.5l-62,-45.7l-29.9,28.8c-3.3,3.3 -6.1,6.1 -12.5,6.1l4.4,-63.1l114.9,-103.8c5,-4.4 -1.1,-6.9 -7.7,-2.5l-142,89.4l-61.2,-19.1c-13.3,-4.2 -13.6,-13.3 2.8,-19.7l239.1,-92.2c11.1,-4 20.8,2.7 17.2,19.5z" fill="#ffffff"/>
 </g>
</svg>